<svg enable-background="new 0 0 135 20" viewBox="0 0 135 20" xmlns="http://www.w3.org/2000/svg" xmlns:xlink="http://www.w3.org/1999/xlink"><linearGradient id="a" gradientTransform="matrix(1 0 0 -1 0 22.0499)" gradientUnits="userSpaceOnUse" x1="0" x2="15.0374" y1="5.1879" y2="5.1879"><stop offset="0" stop-color="#ff1453"/><stop offset=".88" stop-color="#d10342"/></linearGradient><g fill="#302d2d"><path d="m105.7 19.1-4.7-6.8c-.1-.1 0-.3.1-.3 2.7-.8 4.2-3 4.2-5.8 0-3.6-2.6-6.1-6.8-6.1h-6.5c-1.2 0-2.2 1-2.2 2.2v17c0 .1.1.2.2.2h3.6c.1 0 .2-.1.2-.2v-6.6c0-.1.1-.2.2-.2h2.3c.1 0 .1 0 .2.1l4.4 6.9c0 .1.1.1.2.1h4.3c.3-.2.4-.4.3-.5zm-7.2-10.3h-4.3c-.1 0-.2-.1-.2-.2v-4.4c0-.1.1-.2.2-.2h4.3c1.8 0 2.7.8 2.7 2.4 0 1.5-1 2.4-2.7 2.4z"/><path d="m135 18.9c.1.1 0 .2-.1.3-.8.5-1.6.8-2.6.8-2.8 0-4.1-1.9-4.1-4.6v-14c0-.1.1-.2.2-.2l3.4-.8c.1 0 .3.1.3.2v14.8c0 .8.4 1.2 1 1.2.1 0 .3 0 .5-.1.1 0 .2 0 .3.1z"/><path d="m128.3 18.9c.1.1 0 .2-.1.3-.8.5-1.6.8-2.6.8-2.8 0-4.1-1.9-4.1-4.6v-12.4c0-.1.1-.2.2-.2l3.4-.8c.1 0 .3.1.3.2v13.2c0 .8.4 1.2 1 1.2.1 0 .3 0 .5-.1.1 0 .2 0 .3.1z"/><path d="m112.7 5.3c-4.4 0-7.5 3-7.5 7.3s3.2 7.4 7.5 7.4 7.6-3 7.6-7.4c0-4.3-3.2-7.3-7.6-7.3zm0 11.1c-2.2 0-3.6-1.5-3.6-3.8s1.4-3.8 3.6-3.8 3.6 1.6 3.6 3.8c0 2.3-1.4 3.8-3.6 3.8z"/><path d="m66.1 13.8h-9.5c-.1 0-.2.1-.2.2 0 1.1.8 2.2 2.4 2.5 1.5.3 2.8-.1 4-1 .1 0 .1-.1.1-.1.7.7 1.4 1.4 2.1 2.1.1.1.1.2 0 .3-.4.4-.9.7-1.5 1-2.4 1.1-4.8 1.2-7.2.3-1.6-.6-2.6-1.8-3.2-3.3-.9-2.4-.9-4.4 0-6.8s2.7-3.6 5.2-4c1.1-.2 2.2-.1 3.3.2 2.4.7 3.8 2.3 4.5 4.7.3 1.2.3 2.4.3 3.7-.1.2-.2.2-.3.2zm-3.6-2.6c.1 0 .2-.1.2-.2 0-1.5-1.4-2.9-3.2-2.9-1.7 0-3.2 1.3-3.3 2.9 0 .1.1.2.2.2z"/><path d="m80.5 19c.1.1 0 .3-.2.3-1.4 0-2.7 0-4 0-.1 0-.2-.1-.3-.2-.9-1.3-1.8-2.5-2.8-3.8 0 0-.1-.1-.1-.1-.1-.1-.3-.1-.3 0-.2.2-.3.5-.5.7-.8 1.1-1.6 2.2-2.4 3.2-.1.1-.3.2-.4.2-1.4 0-2.8 0-4.1 0 0 0-.1 0-.2 0 1.8-2.4 3.6-4.3 5.5-6.6.1-.1.1-.2 0-.3-1.6-2.2-3.3-4.4-5-6.6-.1-.1 0-.3.2-.3h.2c1.1.1 2.2.1 3.3 0 .4-.1.7 0 .8.3.8 1.1 1.6 2.4 2.5 3.6 0 0 .1.1.1.1.1.1.3.1.3 0 0 0 0 0 0-.1.8-1.1 1.7-2.5 2.5-3.6.2-.3.4-.3.9-.3 1 .1 2 .1 3.1 0h.4c.2 0 .3.2.2.3-1.6 2.1-3.2 4.4-4.8 6.4-.2.2-.2.4 0 .6 1.7 2.3 3.4 4 5.1 6.2z"/><path d="m84.6 1.3c.1 0 .2.1.2.2v1.3 2.8c0 .1.1.2.2.2h3.4c.1 0 .2.1.2.2v2.6c0 .1-.1.2-.2.2h-3.4c-.1 0-.2.1-.2.2v.1 5.6c0 1.3.5 1.9 1.7 1.9 0 0 .3.1.8-.4.1-.1.2-.1.3 0l1.6 2c.1.1.1.2 0 .3-1.8 1.4-3.5 1.2-3.7 1.2-.6 0-1.2-.1-1.8-.3-1.4-.4-2-1.4-2.3-2.8-.1-.4-.1-.9-.1-1.3 0-2.3 0-4.6 0-6.8 0-.1 0-.5 0-.5v-3-2.2c0-.9.7-1.6 1.6-1.6z"/><path d="m51.2 19.2v-.3c0-6.1 0-12.3 0-18.4v-.5h-3.8v.3.1 12.5.3h-.1c-.1-.1-.1-.2-.2-.3-2.9-4.2-5.8-8.4-8.8-12.6-.1-.1-.2-.3-.4-.3h-1.3c-1.2 0-2.2 1-2.2 2.2v.2 6.6 6.1 3.8.3.2h.2 3.6.2v-.1-.1-.3-6.4-6c3 4.3 6 8.6 9 12.9h.3 3.2.2z"/></g><path d="m15 14.3h-8.4-2.4c-2.3 0-4.2 1.9-4.2 4.3v.8h15z" fill="url(#a)"/><path d="m15 0c-5.3.1-9.7 4.4-9.7 9.7s4.3 9.7 9.7 9.7 9.7-4.3 9.7-9.7c0-1.7-.4-3.2-1.2-4.6h2.3c2.3 0 4.2-1.9 4.2-4.3v-.8zm0 14.3c-2.6 0-4.6-2.1-4.6-4.6s2.1-4.6 4.6-4.6 4.6 2.1 4.6 4.6-2 4.6-4.6 4.6z" fill="#ff1453"/></svg>