<svg enable-background="new 0 0 150 19.6" viewBox="0 0 150 19.6" xmlns="http://www.w3.org/2000/svg"><path d="m27.3.4c-.1-.2-.4-.4-.7-.4h-19.6c-.4 0-.6.2-.7.5v.2.1s0 .1 0 .1c0 .1.1.2.1.3l1.6 2.5h10.7c1.1 0 1.8 1.3 1.1 2.2l-5.2 7.9 1.5 2.4s0 .1.1.1 0 0 .1.1h.1.1.1.1.1.1s0 0 0 0h.1.1s.1-.1.1-.2l9.8-15c.1-.1.1-.3.1-.4.3-.1.3-.2.2-.4" fill="#00ae5c"/><path d="m17.2 5.2h-16.5c-.5 0-.8.5-.6 1 0 0 0 .1.1.1l8.2 12.4s.1.1.1.1c.3.4.8.4 1.1 0l8.2-12.6c.2-.3-.1-1-.6-1" fill="#00ae5c"/><g fill="#333"><path d="m69.1 16.2c-.7 0-1-.5-1-1.2v-13.3l-3.8.9v12.4c0 2.7 1.3 4.6 4.1 4.6 1 0 1.9-.4 2.7-.9l-1.3-2.6c-.2.1-.5.1-.7.1z"/><path d="m75.8 16.2c-.7 0-1-.5-1-1.2v-14.9l-3.9.9v14c0 2.7 1.3 4.6 4.1 4.6 1 0 1.9-.4 2.7-.9l-1.3-2.6c-.2.1-.4.1-.6.1z"/><path d="m138.2 5.3h-4.8l-5.2 5.8v-11.1h-1.6c-1.2 0-2.2 1-2.2 2.2v17h3.8v-3.3l1.6-2 3.2 5.3h4.4l-5.2-7.8z"/><path d="m55.6 5c-4.3 0-7.5 3-7.5 7.3s3.1 7.3 7.5 7.3 7.5-3 7.5-7.3-3.2-7.3-7.5-7.3zm3.6 7.3c0 2.2-1.4 3.8-3.6 3.8s-3.6-1.6-3.6-3.8c0-2.2 1.4-3.8 3.6-3.8s3.6 1.5 3.6 3.8c0-.1 0-.1 0 0z"/><path d="m48.3 6.1c0-3.6-2.5-6.1-6.7-6.1h-6.4c-1.2 0-2.2 1-2.2 2.2v17h4v-7h2.6l4.4 7h4.9l-5-7.3c2.7-.7 4.4-2.9 4.4-5.8zm-6.9 2.3h-4.4v-4.7h4.5c1.7 0 2.6.8 2.6 2.4 0 1.5-.9 2.3-2.7 2.3z"/><path d="m106.6 5c-4.3 0-7.5 3-7.5 7.3s3.1 7.3 7.5 7.3c4.3 0 7.5-3 7.5-7.3s-3.2-7.3-7.5-7.3zm0 11c-2.1 0-3.6-1.5-3.6-3.8 0-2.2 1.3-3.6 3.3-3.7h.2c2.1 0 3.6 1.5 3.6 3.8 0 2-1.1 3.3-2.8 3.7-.2 0-.5 0-.7 0z"/><path d="m97.1 0-3.8 13.8-2.6-8.4h-2.7c-.9 0-1.7.6-2 1.4l-2.1 7-3.8-13.8h-4.2l5.8 19.2h3.6l3.2-9.6 3 9.6h3.9l5.9-19.2z"/><path d="m143.9 10.5c-1.6-.3-2.1-.5-2.1-1.1 0-.8.8-1.3 2.4-1.3s3.3.5 4.3 1.3l.1-.2v.1l1.3-2.6s-.1-.1-.4-.2c-1.4-.9-3.3-1.5-5.3-1.5-2.9 0-6.3 1-6.3 4.6 0 2.9 2.2 3.6 5.6 4.2 1.7.3 2.7.5 2.7 1.3 0 1.2-1.3 1.4-2.4 1.4-1.5 0-3.4-.4-4.7-1.1 0 0-.1-.1-.2-.1l-1.3 2.7.4.2h.1c1.5.9 3.7 1.4 5.5 1.4 3.7 0 6.3-1.7 6.3-4.7.1-3.2-2.6-3.8-6-4.4z"/><path d="m123 5.4c-.1 0-.1 0 0 0-.4-.2-.7-.3-1-.3-.4-.1-.8-.1-1.1 0-1.8.4-2.7 1.7-2.7 1.7l.1-1v-.4h-3.1v3.1 10.7h3.8v-7.8c0-.7.1-1.3.4-1.8.2-.4.4-.6.6-.8.2-.1.3-.2.5-.3.6-.2 1.3-.2 1.7 0l1.3-2.5.1-.2c-.1 0-.2-.2-.6-.4z"/></g></svg>